<?xml version="1.0" encoding="UTF-8"?>
<svg version="1.1" xmlns="http://www.w3.org/2000/svg" width="225" height="225">
<path d="M0 0 C74.25 0 148.5 0 225 0 C225 74.25 225 148.5 225 225 C150.75 225 76.5 225 0 225 C0 150.75 0 76.5 0 0 Z " fill="#FDFDFD" transform="translate(0,0)"/>
<path d="M0 0 C0.15811127 3.32033668 0.09838058 5.73379372 -1.0625 8.875 C-2.24938045 12.83126818 -2.292434 16.1076697 -1 20 C1.80840169 24.46144826 5.26742446 27.63371223 10 30 C9.125 36.75 9.125 36.75 8 39 C7.2235585 47.96347655 6.62300774 56.35267312 12.07421875 63.9765625 C16.44913719 68.57333279 22.07208851 72.86026616 28.51953125 73.16796875 C29.95048549 73.17994883 31.38149617 73.18622573 32.8125 73.1875 C33.52470703 73.19974609 34.23691406 73.21199219 34.97070312 73.22460938 C39.17245344 73.23627011 42.17488676 72.64304525 46 71 C48.62109375 70.63671875 48.62109375 70.63671875 51 71 C52.66015625 72.64453125 52.66015625 72.64453125 54.0625 74.8125 C56.07952518 77.87994273 57.78100909 80.15237955 61 82 C63.90887967 82.43642984 63.90887967 82.43642984 67 82.3125 C68.03125 82.30863281 69.0625 82.30476563 70.125 82.30078125 C72.95401063 82.00481139 74.54607633 81.34693144 77 80 C79.98970481 80.35172998 80.82711465 80.82711465 83 83 C83.20346202 85.64799829 83.2835499 88.1654989 83.25 90.8125 C83.24250732 91.58005615 83.23501465 92.3476123 83.22729492 93.13842773 C82.74287104 119.14305971 72.41505844 141.9815574 54.6875 160.75 C35.56678142 179.06563569 10.9382349 187.38659682 -15.16796875 187.15234375 C-41.01021692 186.12497609 -64.11362048 175.01119291 -81.8828125 156.4609375 C-99.52941067 135.949209 -107.06489232 111.78613757 -106 85 C-103.68083211 59.72400562 -92.30368461 36.60729692 -73 20 C-55.34113725 6.25497491 -22.56865093 -10.61063439 0 0 Z " fill="#FCFCFC" transform="translate(124,20)"/>
<path d="M0 0 C0.15811127 3.32033668 0.09838058 5.73379372 -1.0625 8.875 C-2.24938045 12.83126818 -2.292434 16.1076697 -1 20 C1.80840169 24.46144826 5.26742446 27.63371223 10 30 C9.125 36.75 9.125 36.75 8 39 C7.2235585 47.96347655 6.62300774 56.35267312 12.07421875 63.9765625 C16.44913719 68.57333279 22.07208851 72.86026616 28.51953125 73.16796875 C29.95048549 73.17994883 31.38149617 73.18622573 32.8125 73.1875 C33.52470703 73.19974609 34.23691406 73.21199219 34.97070312 73.22460938 C39.17245344 73.23627011 42.17488676 72.64304525 46 71 C48.62109375 70.63671875 48.62109375 70.63671875 51 71 C52.66015625 72.64453125 52.66015625 72.64453125 54.0625 74.8125 C56.07952518 77.87994273 57.78100909 80.15237955 61 82 C63.90887967 82.43642984 63.90887967 82.43642984 67 82.3125 C68.03125 82.30863281 69.0625 82.30476563 70.125 82.30078125 C72.95401063 82.00481139 74.54607633 81.34693144 77 80 C79.98970481 80.35172998 80.82711465 80.82711465 83 83 C83.20346202 85.64799829 83.2835499 88.1654989 83.25 90.8125 C83.24250732 91.58005615 83.23501465 92.3476123 83.22729492 93.13842773 C82.74287104 119.14305971 72.41505844 141.9815574 54.6875 160.75 C35.56678142 179.06563569 10.9382349 187.38659682 -15.16796875 187.15234375 C-41.01021692 186.12497609 -64.11362048 175.01119291 -81.8828125 156.4609375 C-99.52941067 135.949209 -107.06489232 111.78613757 -106 85 C-103.68083211 59.72400562 -92.30368461 36.60729692 -73 20 C-55.34113725 6.25497491 -22.56865093 -10.61063439 0 0 Z M-68 28 C-68.81082031 28.61101563 -69.62164062 29.22203125 -70.45703125 29.8515625 C-84.36553466 41.60221822 -94.15731469 61.34982508 -96.75 79.1875 C-96.8673653 80.78953637 -96.94383624 82.39465245 -97 84 C-97.07734375 85.97613281 -97.07734375 85.97613281 -97.15625 87.9921875 C-97.7573763 110.6692441 -91.77241741 128.95250134 -78 147 C-77.30003906 147.97646484 -77.30003906 147.97646484 -76.5859375 148.97265625 C-64.8547913 164.19435822 -43.50429105 175.06057012 -24.75 177.75 C-23.16868218 177.86542466 -21.58450247 177.94307177 -20 178 C-18.76765625 178.0515625 -17.5353125 178.103125 -16.265625 178.15625 C9.32524859 178.88365464 29.75201838 170.84521345 49 154 C64.2892205 137.39140514 74.09076089 117.7356842 74.1875 94.9375 C74.125625 93.638125 74.06375 92.33875 74 91 C72.82244141 91.05220703 72.82244141 91.05220703 71.62109375 91.10546875 C62.50790266 91.34028717 56.92548305 90.33187022 50 84 C49.34 83.01 48.68 82.02 48 81 C46.99453125 81.15855469 45.9890625 81.31710938 44.953125 81.48046875 C33.20859645 83.02396904 22.22918961 83.0925855 12.27734375 76.08203125 C5.47373607 70.42070822 1.77394191 64.32182574 -1 56 C-1.09656521 53.60575092 -1.1298068 51.2086908 -1.125 48.8125 C-1.12741699 48.13848145 -1.12983398 47.46446289 -1.13232422 46.77001953 C-1.11937216 43.19093404 -0.87632283 39.86999281 -0.125 36.375 C-0.08375 35.26125 -0.0425 34.1475 0 33 C-2.44602934 30.68112361 -2.44602934 30.68112361 -4.36328125 29.3828125 C-7.6009607 26.64739835 -8.95662193 23.02959807 -10 19 C-10.30009534 14.97291412 -10.24539102 11.0285026 -10 7 C-32.16113164 6.0995477 -51.23349652 13.86578034 -68 28 Z " fill="#050505" transform="translate(124,20)"/>
<path d="M0 0 C2.5 2.125 2.5 2.125 4 5 C4.25 8.8125 4.25 8.8125 4 12 C5.9664052 11.26804566 5.9664052 11.26804566 8 10 C8.28875 9.319375 8.5775 8.63875 8.875 7.9375 C10 6 10 6 12.9375 5.0625 C16 5 16 5 17.875 6.25 C19 8 19 8 19 11 C19.804375 11.309375 20.60875 11.61875 21.4375 11.9375 C24 13 24 13 25 14 C25.04080783 15.99958364 25.04254356 18.00045254 25 20 C23.35 20.66 21.7 21.32 20 22 C20 22.99 20 23.98 20 25 C17.5 27.6875 17.5 27.6875 15 30 C11.14406926 28.41438362 8.66783709 25.93490046 5.75 23 C4.85796875 22.113125 3.9659375 21.22625 3.046875 20.3125 C1 18 1 18 1 16 C0.40832031 16.11859375 -0.18335938 16.2371875 -0.79296875 16.359375 C-4.84045641 17.01965031 -7.22748197 17.37016489 -11 15.5625 C-13.65096879 12.16594623 -14.46054476 9.29841779 -14 5 C-10.29953562 -0.99730434 -6.69965013 -1.9066198 0 0 Z " fill="#E6E6E6" transform="translate(176,19)"/>
<path d="M0 0 C3.29698191 2.55536251 5.3682407 4.90607364 6.22265625 8.98828125 C6.14907639 13.62381225 5.8357519 16.66925564 2.97265625 20.36328125 C-1.07824304 24.23004875 -3.10404745 25.01484151 -8.71484375 24.92578125 C-13.32056565 24.18573142 -15.57607781 22.34198842 -18.77734375 18.98828125 C-21.0286482 15.36661757 -21.0578802 12.18567871 -20.3828125 7.984375 C-19.0706331 3.65841581 -16.2872117 0.92684781 -12.46484375 -1.44921875 C-8.02904585 -2.37764157 -3.95848593 -2.25329199 0 0 Z " fill="#000000" transform="translate(74.77734375,92.01171875)"/>
<path d="M0 0 C2.92970081 2.45138231 4.63434275 4.18236398 5.40234375 8 C5.61339528 12.45740838 4.8220023 15.57328293 2 19 C-0.96804417 21.3084788 -4.2526188 21.49208479 -7.96484375 21.3671875 C-11.81651051 20.67226106 -13.54156167 18.93813362 -16 16 C-17.05814121 12.92177102 -17.34747864 10.23553878 -17 7 C-13.22470782 -0.69041 -7.97746899 -2.39891861 0 0 Z " fill="#030303" transform="translate(143,145)"/>
<path d="M0 0 C1.9375 1.125 1.9375 1.125 3 3 C2.66666667 9.33333333 2.66666667 9.33333333 0 12 C-6.32258065 12.33870968 -6.32258065 12.33870968 -9 11 C-9 10.34 -9 9.68 -9 9 C-10.32 9.99 -11.64 10.98 -13 12 C-12.42547254 15.93075644 -12.42547254 15.93075644 -10 19 C-8.68252676 19.69748583 -7.35085807 20.36959957 -6 21 C-7.32 21 -8.64 21 -10 21 C-10.020625 22.093125 -10.04125 23.18625 -10.0625 24.3125 C-11 28 -11 28 -12.625 29.1328125 C-14.5625 29.9375 -14.5625 29.9375 -18 31 C-18 31.99 -18 32.98 -18 34 C-18.680625 33.29875 -19.36125 32.5975 -20.0625 31.875 C-23.20780513 28.72065663 -26.5888386 25.86065696 -30 23 C-28.52278578 26.45201639 -26.56205999 28.64961936 -23.875 31.25 C-22.78832031 32.30960938 -22.78832031 32.30960938 -21.6796875 33.390625 C-21.12539062 33.92171875 -20.57109375 34.4528125 -20 35 C-23 35 -23 35 -25.48046875 32.8125 C-26.37378906 31.884375 -27.26710938 30.95625 -28.1875 30 C-29.08855469 29.071875 -29.98960938 28.14375 -30.91796875 27.1875 C-31.60503906 26.465625 -32.29210937 25.74375 -33 25 C-32.34 23.35 -31.68 21.7 -31 20 C-28.53199953 21.15173355 -26.95216435 22.04783565 -25 24 C-24.773125 23.071875 -24.54625 22.14375 -24.3125 21.1875 C-23 18 -23 18 -20.5625 16.0625 C-18 15 -18 15 -15 16 C-15 14.02 -15 12.04 -15 10 C-14.360625 9.79375 -13.72125 9.5875 -13.0625 9.375 C-12.0415625 8.694375 -12.0415625 8.694375 -11 8 C-10.65977214 6.00116131 -10.32670903 4.00109278 -10 2 C-6.88033777 -1.58183441 -4.3851177 -1.30620527 0 0 Z " fill="#F1F1F1" transform="translate(114,109)"/>
<path d="M0 0 C2 2 2 2 2 5 C2.804375 5.309375 3.60875 5.61875 4.4375 5.9375 C7 7 7 7 8 8 C8.375 10.375 8.375 10.375 8 13 C6.35666496 14.03789581 4.68756133 15.03567924 3 16 C1.84478498 18.47130918 1.84478498 18.47130918 1 21 C-0.625 22.8125 -0.625 22.8125 -2 24 C-6.07376031 22.38989473 -8.76507069 19.46177729 -11.75 16.375 C-12.25660156 15.859375 -12.76320313 15.34375 -13.28515625 14.8125 C-14.52803902 13.54616661 -15.76465276 12.2736856 -17 11 C-16.04882866 9.8274869 -15.08882991 8.66212985 -14.125 7.5 C-13.32449219 6.52546875 -13.32449219 6.52546875 -12.5078125 5.53125 C-12.01023437 5.0259375 -11.51265625 4.520625 -11 4 C-10.34 4 -9.68 4 -9 4 C-8.71125 3.360625 -8.4225 2.72125 -8.125 2.0625 C-6.0295042 -1.7792423 -3.82988038 -1.05321711 0 0 Z " fill="#E6E6E6" transform="translate(38,25)"/>
<path d="M0 0 C4.75 0.75 4.75 0.75 7 3 C7 4.32 7 5.64 7 7 C7.804375 7.144375 8.60875 7.28875 9.4375 7.4375 C12 8 12 8 13 9 C13.04080783 10.99958364 13.04254356 13.00045254 13 15 C11.35 15.66 9.7 16.32 8 17 C8 17.99 8 18.98 8 20 C5.5 22.6875 5.5 22.6875 3 25 C-0.90285767 23.41332422 -3.33520982 20.86649519 -6.25 17.875 C-7.14203125 16.96492188 -8.0340625 16.05484375 -8.953125 15.1171875 C-9.62859375 14.41851562 -10.3040625 13.71984375 -11 13 C-9.28350631 9.21269053 -7.2722322 7.57103959 -4 5 C-2.62631655 3.36643049 -1.28062485 1.7074998 0 0 Z " fill="#E6E6E6" transform="translate(188,179)"/>
<path d="M0 0 C5.75 0.75 5.75 0.75 8 3 C8 3.99 8 4.98 8 6 C8.804375 6.309375 9.60875 6.61875 10.4375 6.9375 C13 8 13 8 14 9 C14.125 12 14.125 12 14 15 C13 16 13 16 10.4375 16.0625 C9.633125 16.041875 8.82875 16.02125 8 16 C8.268125 16.556875 8.53625 17.11375 8.8125 17.6875 C8.874375 18.450625 8.93625 19.21375 9 20 C6.5625 22.75 6.5625 22.75 4 25 C0.09714233 23.41332422 -2.33520982 20.86649519 -5.25 17.875 C-6.14203125 16.96492188 -7.0340625 16.05484375 -7.953125 15.1171875 C-8.62859375 14.41851562 -9.3040625 13.71984375 -10 13 C-8.57268007 10.07153324 -7.13071088 7.48582937 -5 5 C-4.34 5 -3.68 5 -3 5 C-1.3553326 2.53673288 -1.3553326 2.53673288 0 0 Z " fill="#E6E6E6" transform="translate(32,179)"/>
<path d="M0 0 C2.5625 2.0625 2.5625 2.0625 4 5 C4.20905365 8.57481734 3.68266041 11.75514867 1.9375 14.9375 C-1.24485133 16.68266041 -4.42518266 17.20905365 -8 17 C-11.06790679 15.49868391 -12.50948528 14.38498273 -13.6640625 11.125 C-14.42043055 7.20968301 -14.33151312 5.53727989 -12.1875 2.0625 C-8.32150923 -1.58257701 -4.97825376 -1.40412285 0 0 Z " fill="#050505" transform="translate(176,19)"/>
<path d="M0 0 C4.45850936 0.79616239 5.90783917 1.93313458 8.5 5.625 C9.2878128 10.0367517 9.02975133 11.84692774 6.5 15.5625 C2.33082591 18.42880719 0.48902441 18.41690864 -4.5 17.625 C-7.74985922 14.94386615 -8.39575014 13.27366582 -9.0625 9.125 C-8.5 5.625 -8.5 5.625 -6.4375 2.6875 C-3.5 0.625 -3.5 0.625 0 0 Z " fill="#090909" transform="translate(76.5,139.375)"/>
<path d="M0 0 C0.99 1.0209375 0.99 1.0209375 2 2.0625 C4.95492231 5.05148481 8.17310189 7.69410542 11.42578125 10.3515625 C13 12 13 12 13 15 C11.576875 15.4021875 11.576875 15.4021875 10.125 15.8125 C6.74732727 16.74986588 6.74732727 16.74986588 5 20 C4.34 18.68 3.68 17.36 3 16 C2.13375 16.2165625 2.13375 16.2165625 1.25 16.4375 C-0.83333333 16.95833333 -2.91666667 17.47916667 -5 18 C-4.67 17.01 -4.34 16.02 -4 15 C-3.01 14.67 -2.02 14.34 -1 14 C-0.67 13.34 -0.34 12.68 0 12 C-4.41889613 13.35021826 -6.34345343 15.26115668 -9 19 C-8.63692621 16.31325398 -8.33095772 14.44127696 -6.6875 12.25 C-4.80095268 10.85255754 -3.29800696 10.3962081 -1 10 C-1.33 9.67 -1.66 9.34 -2 9 C-2.26293056 4.96839809 -2.29404844 3.44107266 0 0 Z " fill="#F5F5F5" transform="translate(126,86)"/>
<path d="M0 0 C1.9375 1.125 1.9375 1.125 3 3 C2.66666667 9.33333333 2.66666667 9.33333333 0 12 C-6.00458716 12.54587156 -6.00458716 12.54587156 -8.9375 10.9375 C-10.63335287 7.84506242 -10.43060657 5.44485259 -10 2 C-7.00946104 -1.68066334 -4.3259629 -1.28858469 0 0 Z " fill="#090909" transform="translate(114,109)"/>
<path d="M0 0 C1.9375 1.125 1.9375 1.125 3 3 C2.66666667 9.33333333 2.66666667 9.33333333 0 12 C-6.00458716 12.54587156 -6.00458716 12.54587156 -8.9375 10.9375 C-10.63335287 7.84506242 -10.43060657 5.44485259 -10 2 C-7.00946104 -1.68066334 -4.3259629 -1.28858469 0 0 Z " fill="#040404" transform="translate(168,55)"/>
<path d="M0 0 C3.5625 0.3125 3.5625 0.3125 5.5 1.375 C7.19585287 4.46743758 6.99310657 6.86764741 6.5625 10.3125 C4.9375 12.3125 4.9375 12.3125 2.5625 13.3125 C-0.9178645 13.24147215 -2.73235909 12.92665498 -5.375 10.625 C-6.82300221 7.47346578 -6.367426 5.60300737 -5.4375 2.3125 C-3.4375 0.3125 -3.4375 0.3125 0 0 Z " fill="#040404" transform="translate(96.4375,67.6875)"/>
<path d="M0 0 C0 0.66 0 1.32 0 2 C0.66 2.33 1.32 2.66 2 3 C2 3.33 2 3.66 2 4 C2.66 4 3.32 4 4 4 C4.25 6.3125 4.25 6.3125 4 9 C2.3125 10.875 2.3125 10.875 0 12 C-2.85343764 11.86080792 -4.46462886 11.36922147 -6.8125 9.75 C-8.45364719 7.3314673 -8.42967368 5.86449123 -8 3 C-5.82311273 -0.32261741 -3.79605352 -0.30778812 0 0 Z " fill="#FDFDFD" transform="translate(99,126)"/>
<path d="M0 0 C-0.3125 1.9375 -0.3125 1.9375 -1 4 C-1.99 4.33 -2.98 4.66 -4 5 C-2.68 5.66 -1.36 6.32 0 7 C-2.25 9.5 -2.25 9.5 -5 12 C-6.32 12 -7.64 12 -9 12 C-11.625 9.125 -11.625 9.125 -14 6 C-14.66 5.34 -15.32 4.68 -16 4 C-16 3.34 -16 2.68 -16 2 C-11.91993039 1.29383411 -8.97892219 1.00526945 -5 2 C-2 0 -2 0 0 0 Z " fill="#F2F2F2" transform="translate(128,104)"/>
<path d="M0 0 C0.4206933 4.29107165 0.45543836 6.35134537 -2.0625 9.9375 C-5.64865463 12.45543836 -7.70892835 12.4206933 -12 12 C-10.53033642 8.60140297 -8.61962486 6.35036291 -6 3.75 C-5.29875 3.04359375 -4.5975 2.3371875 -3.875 1.609375 C-2 0 -2 0 0 0 Z " fill="#000000" transform="translate(85,145)"/>
<path d="M0 0 C2.31 0.33 4.62 0.66 7 1 C7 1.99 7 2.98 7 4 C7.61875 4.12375 8.2375 4.2475 8.875 4.375 C11 5 11 5 13 7 C12.625 10.125 12.625 10.125 12 13 C7.35114974 10.12214031 3.65477745 7.08987001 0 3 C0 2.01 0 1.02 0 0 Z " fill="#313131" transform="translate(128,86)"/>
<path d="M0 0 C4.875 2.875 4.875 2.875 6 4 C5.71269945 6.33944736 5.38063221 8.6739143 5 11 C2 11 2 11 -0.6875 8.5 C-1.450625 7.675 -2.21375 6.85 -3 6 C-2.67 5.01 -2.34 4.02 -2 3 C-1.34 3 -0.68 3 0 3 C0 2.01 0 1.02 0 0 Z " fill="#3A3A3A" transform="translate(111,108)"/>
<path d="M0 0 C2.5625 0.1875 2.5625 0.1875 4.5625 2.1875 C4.00694444 6.74305556 4.00694444 6.74305556 2.5625 8.1875 C0.125 8.375 0.125 8.375 -2.4375 8.1875 C-3.0975 7.5275 -3.7575 6.8675 -4.4375 6.1875 C-3.71780303 0.28598485 -3.71780303 0.28598485 0 0 Z " fill="#050505" transform="translate(202.4375,67.8125)"/>
<path d="M0 0 C0.66 0.33 1.32 0.66 2 1 C1.25 7.75 1.25 7.75 -1 10 C-4.625 10.125 -4.625 10.125 -8 10 C-6.34908222 5.70761377 -3.26245434 3.1206085 0 0 Z " fill="#1A1A1A" transform="translate(169,57)"/>
<path d="M0 0 C0.33 0 0.66 0 1 0 C1.1875 2.3125 1.1875 2.3125 1 5 C0.484375 5.495 -0.03125 5.99 -0.5625 6.5 C-1.036875 6.995 -1.51125 7.49 -2 8 C-1.75546876 11.34192692 -1.39456443 12.60543557 1 15 C2.31747324 15.69748583 3.64914193 16.36959957 5 17 C3.68 17 2.36 17 1 17 C1 18.65 1 20.3 1 22 C0.67 22 0.34 22 0 22 C0 20.35 0 18.7 0 17 C-2.33075929 17.95865509 -2.33075929 17.95865509 -4 21 C-3.79375 20.2575 -3.5875 19.515 -3.375 18.75 C-2.72341387 16.04655801 -2.72341387 16.04655801 -4.0625 14.125 C-5 12 -5 12 -4.3125 8.3125 C-3.879375 7.219375 -3.44625 6.12625 -3 5 C-2.01 4.67 -1.02 4.34 0 4 C0 2.68 0 1.36 0 0 Z " fill="#EFEFEF" transform="translate(103,113)"/>
<path d="M0 0 C3.3 0.33 6.6 0.66 10 1 C10 2.65 10 4.3 10 6 C9.67 4.68 9.34 3.36 9 2 C8.01 2 7.02 2 6 2 C5.67 3.32 5.34 4.64 5 6 C3.68 5.67 2.36 5.34 1 5 C0.67 3.35 0.34 1.7 0 0 Z " fill="#EDEDED" transform="translate(103,120)"/>
<path d="M0 0 C0.12375 0.78375 0.2475 1.5675 0.375 2.375 C0.79117993 5.14057822 0.79117993 5.14057822 3 7 C2.34 8.32 1.68 9.64 1 11 C0.34 9.68 -0.32 8.36 -1 7 C-1.5775 7.144375 -2.155 7.28875 -2.75 7.4375 C-5.875 8.21875 -5.875 8.21875 -9 9 C-8.67 8.01 -8.34 7.02 -8 6 C-7.01 5.67 -6.02 5.34 -5 5 C-4.34 4.34 -3.68 3.68 -3 3 C-3 3.66 -3 4.32 -3 5 C-2.34 5 -1.68 5 -1 5 C-1 4.01 -1 3.02 -1 2 C-1.66 1.67 -2.32 1.34 -3 1 C-1 0 -1 0 0 0 Z " fill="#EFEFEF" transform="translate(130,95)"/>
<path d="M0 0 C-0.66 1.98 -1.32 3.96 -2 6 C-3.32 5.67 -4.64 5.34 -6 5 C-6.33 3.35 -6.66 1.7 -7 0 C-3.98968256 -0.93423645 -3.13349732 -1.04449911 0 0 Z " fill="#F6F6F6" transform="translate(101,129)"/>
<path d="M0 0 C0.33 0 0.66 0 1 0 C1.1875 2.3125 1.1875 2.3125 1 5 C-0.375 6.5625 -0.375 6.5625 -2 8 C-3.17574711 10.09989652 -3.17574711 10.09989652 -4 12 C-4 10.02 -4 8.04 -4 6 C-2.68 5.34 -1.36 4.68 0 4 C0 2.68 0 1.36 0 0 Z " fill="#E6E6E6" transform="translate(103,113)"/>
<path d="M0 0 C1.65 0 3.3 0 5 0 C5.66 1.32 6.32 2.64 7 4 C4.03 3.505 4.03 3.505 1 3 C0.67 2.01 0.34 1.02 0 0 Z " fill="#3F3F3F" transform="translate(104,117)"/>
<path d="M0 0 C1.485 0.99 1.485 0.99 3 2 C3 3.32 3 4.64 3 6 C1.68 5.34 0.36 4.68 -1 4 C-0.67 2.68 -0.34 1.36 0 0 Z " fill="#070707" transform="translate(114,110)"/>
</svg>
